<svg width="45" height="45" viewBox="0 0 45 45" fill="none" xmlns="http://www.w3.org/2000/svg">
<path d="M1.07143 17.1429C1.35559 17.1429 1.62811 17.03 1.82904 16.829C2.02997 16.6281 2.14286 16.3556 2.14286 16.0714V2.14286H16.0714C16.3556 2.14286 16.6281 2.02997 16.829 1.82904C17.03 1.62811 17.1429 1.35559 17.1429 1.07143C17.1429 0.787268 17.03 0.514746 16.829 0.313814C16.6281 0.112883 16.3556 0 16.0714 0H1.07143C0.787268 0 0.514746 0.112883 0.313814 0.313814C0.112883 0.514746 0 0.787268 0 1.07143V16.0714C0 16.3556 0.112883 16.6281 0.313814 16.829C0.514746 17.03 0.787268 17.1429 1.07143 17.1429Z" fill="white"/>
<path d="M43.9289 0H28.9289C28.6447 0 28.3722 0.112883 28.1712 0.313814C27.9703 0.514746 27.8574 0.787268 27.8574 1.07143C27.8574 1.35559 27.9703 1.62811 28.1712 1.82904C28.3722 2.02997 28.6447 2.14286 28.9289 2.14286H42.8574V16.0714C42.8574 16.3556 42.9703 16.6281 43.1712 16.829C43.3722 17.03 43.6447 17.1429 43.9289 17.1429C44.213 17.1429 44.4855 17.03 44.6865 16.829C44.8874 16.6281 45.0003 16.3556 45.0003 16.0714V1.07143C45.0003 0.787268 44.8874 0.514746 44.6865 0.313814C44.4855 0.112883 44.213 0 43.9289 0Z" fill="white"/>
<path d="M16.0714 42.8571H2.14286V28.9285C2.14286 28.6443 2.02997 28.3718 1.82904 28.1709C1.62811 27.9699 1.35559 27.8571 1.07143 27.8571C0.787268 27.8571 0.514746 27.9699 0.313814 28.1709C0.112883 28.3718 0 28.6443 0 28.9285V43.9285C0 44.2126 0.112883 44.4852 0.313814 44.6861C0.514746 44.887 0.787268 44.9999 1.07143 44.9999H16.0714C16.3556 44.9999 16.6281 44.887 16.829 44.6861C17.03 44.4852 17.1429 44.2126 17.1429 43.9285C17.1429 43.6443 17.03 43.3718 16.829 43.1709C16.6281 42.9699 16.3556 42.8571 16.0714 42.8571Z" fill="white"/>
<path d="M43.9289 27.8571C43.6447 27.8571 43.3722 27.9699 43.1712 28.1709C42.9703 28.3718 42.8574 28.6443 42.8574 28.9285V42.8571H28.9289C28.6447 42.8571 28.3722 42.9699 28.1712 43.1709C27.9703 43.3718 27.8574 43.6443 27.8574 43.9285C27.8574 44.2126 27.9703 44.4852 28.1712 44.6861C28.3722 44.887 28.6447 44.9999 28.9289 44.9999H43.9289C44.213 44.9999 44.4855 44.887 44.6865 44.6861C44.8874 44.4852 45.0003 44.2126 45.0003 43.9285V28.9285C45.0003 28.6443 44.8874 28.3718 44.6865 28.1709C44.4855 27.9699 44.213 27.8571 43.9289 27.8571Z" fill="white"/>
<path d="M22.4997 20.8929C23.5593 20.8929 24.595 20.5787 25.476 19.9901C26.357 19.4014 27.0436 18.5648 27.4491 17.5859C27.8545 16.607 27.9606 15.5299 27.7539 14.4907C27.5472 13.4515 27.037 12.4969 26.2878 11.7477C25.5386 10.9985 24.584 10.4883 23.5448 10.2816C22.5057 10.0749 21.4285 10.181 20.4496 10.5864C19.4707 10.9919 18.6341 11.6785 18.0454 12.5595C17.4568 13.4405 17.1426 14.4763 17.1426 15.5358C17.1426 16.9566 17.707 18.3192 18.7116 19.3239C19.7163 20.3285 21.0789 20.8929 22.4997 20.8929ZM22.4997 12.3215C23.1354 12.3215 23.7569 12.51 24.2855 12.8632C24.8141 13.2164 25.2261 13.7184 25.4693 14.3057C25.7126 14.8931 25.7763 15.5394 25.6522 16.1629C25.5282 16.7864 25.2221 17.3591 24.7726 17.8086C24.323 18.2582 23.7503 18.5643 23.1268 18.6883C22.5033 18.8123 21.857 18.7487 21.2697 18.5054C20.6823 18.2621 20.1803 17.8501 19.8271 17.3216C19.4739 16.793 19.2854 16.1715 19.2854 15.5358C19.2854 14.6833 19.6241 13.8657 20.2269 13.263C20.8297 12.6602 21.6472 12.3215 22.4997 12.3215Z" fill="white"/>
<path d="M31.0714 33.75C31.0714 34.0342 31.1842 34.3067 31.3852 34.5076C31.5861 34.7085 31.8586 34.8214 32.1428 34.8214C32.4269 34.8214 32.6995 34.7085 32.9004 34.5076C33.1013 34.3067 33.2142 34.0342 33.2142 33.75C33.2142 30.9084 32.0854 28.1832 30.0761 26.1738C28.0668 24.1645 25.3415 23.0357 22.4999 23.0357C19.6583 23.0357 16.9331 24.1645 14.9238 26.1738C12.9145 28.1832 11.7856 30.9084 11.7856 33.75C11.7856 34.0342 11.8985 34.3067 12.0995 34.5076C12.3004 34.7085 12.5729 34.8214 12.8571 34.8214C13.1412 34.8214 13.4138 34.7085 13.6147 34.5076C13.8156 34.3067 13.9285 34.0342 13.9285 33.75C13.9285 31.4767 14.8316 29.2965 16.439 27.6891C18.0465 26.0816 20.2266 25.1786 22.4999 25.1786C24.7732 25.1786 26.9534 26.0816 28.5608 27.6891C30.1683 29.2965 31.0714 31.4767 31.0714 33.75Z" fill="white"/>
</svg>
