<svg width="12" height="23" viewBox="0 0 12 23" fill="none" xmlns="http://www.w3.org/2000/svg">
<path d="M3.34682 12.5314C3.2597 12.5314 1.43216 12.5319 0.589269 12.5311C0.155341 12.5308 0.000525317 12.3749 0.000525317 11.9382C-2.95784e-05 10.8165 -0.000307026 9.69475 0.000525317 8.57303C0.000802765 8.14187 0.164497 7.97735 0.592876 7.97707C1.43576 7.97651 3.25332 7.97679 3.34682 7.97679C3.34682 7.89994 3.34654 6.28048 3.34682 5.5347C3.34738 4.43212 3.54409 3.37671 4.10425 2.41036C4.67774 1.42126 5.5123 0.743731 6.58186 0.351975C7.26688 0.100885 7.97798 0.000726094 8.70489 0.000171199C9.61437 -0.000383697 10.5238 0.000448638 11.4336 0.00211332C11.8245 0.00266822 11.9979 0.175518 11.9988 0.569216C12.0004 1.62435 12.0004 2.67948 11.9988 3.73434C11.9982 4.1322 11.832 4.29201 11.4322 4.29645C10.6867 4.30449 9.94064 4.2995 9.19597 4.32946C8.44381 4.32946 8.04817 4.69681 8.04817 5.47532C8.03014 6.29879 8.04068 7.12309 8.04068 7.97651C8.11115 7.97651 10.2517 7.97624 11.2521 7.97651C11.7066 7.97651 11.862 8.13272 11.862 8.58967C11.862 9.70529 11.8617 10.8212 11.8609 11.9368C11.8606 12.3871 11.7146 12.5308 11.2574 12.5311C10.2569 12.5317 8.12475 12.5314 8.03153 12.5314V21.5609C8.03153 22.0423 7.88004 22.1957 7.40505 22.1957C6.24698 22.1957 5.08864 22.196 3.93057 22.1957C3.51079 22.1957 3.3471 22.0326 3.3471 21.6128C3.34682 18.6721 3.34682 12.6346 3.34682 12.5314Z" fill="#3D6AD6"/>
</svg>
