<svg width="35" height="32" viewBox="0 0 35 32" fill="none" xmlns="http://www.w3.org/2000/svg">
    <defs>
        <linearGradient id="paint0_linear_2582_516" x1="8.72168" y1="16.382" x2="34.9998" y2="16.382" gradientUnits="userSpaceOnUse">
            <stop stop-color="#085078"/>
            <stop offset="1" stop-color="#85D8CE"/>
        </linearGradient>
        <linearGradient id="paint1_linear_2582_516" x1="11.873" y1="9.23657" x2="13.9994" y2="9.23657" gradientUnits="userSpaceOnUse">
            <stop stop-color="#085078"/>
            <stop offset="1" stop-color="#85D8CE"/>
        </linearGradient>
        <linearGradient id="paint2_linear_2582_516" x1="10.8184" y1="9.72006" x2="12.0006" y2="9.72006" gradientUnits="userSpaceOnUse">
            <stop stop-color="#085078"/>
            <stop offset="1" stop-color="#85D8CE"/>
        </linearGradient>
        <linearGradient id="paint3_linear_2582_516" x1="23.6875" y1="0.456323" x2="25.188" y2="0.456323" gradientUnits="userSpaceOnUse">
            <stop stop-color="#085078"/>
            <stop offset="1" stop-color="#85D8CE"/>
        </linearGradient>
        <linearGradient id="paint4_linear_2582_516" x1="2.9209" y1="2.27773" x2="12.3028" y2="2.27773" gradientUnits="userSpaceOnUse">
            <stop stop-color="#085078"/>
            <stop offset="1" stop-color="#85D8CE"/>
        </linearGradient>
        <linearGradient id="paint5_linear_2582_516" x1="-2" y1="8.84666" x2="2.07999" y2="8.84666" gradientUnits="userSpaceOnUse">
            <stop stop-color="#085078"/>
            <stop offset="1" stop-color="#85D8CE"/>
        </linearGradient>
        <linearGradient id="paint6_linear_2582_516" x1="8.46289" y1="5.21016" x2="10.4762" y2="5.21016" gradientUnits="userSpaceOnUse">
            <stop stop-color="#085078"/>
            <stop offset="1" stop-color="#85D8CE"/>
        </linearGradient>
        <linearGradient id="paint7_linear_2582_516" x1="-0.344727" y1="25.6275" x2="5.81503" y2="25.6275" gradientUnits="userSpaceOnUse">
            <stop stop-color="#085078"/>
            <stop offset="1" stop-color="#85D8CE"/>
        </linearGradient>
        <linearGradient id="paint8_linear_2582_516" x1="23.9893" y1="29.1507" x2="26.0614" y2="29.1507" gradientUnits="userSpaceOnUse">
            <stop stop-color="#085078"/>
            <stop offset="1" stop-color="#85D8CE"/>
        </linearGradient>
        <linearGradient id="paint9_linear_2582_516" x1="3.5" y1="3" x2="17" y2="31" gradientUnits="userSpaceOnUse">
            <stop stop-color="#FFDD9B"/>
            <stop offset="1" stop-color="#E24C64"/>
        </linearGradient>
    </defs>
    <mask id="mask0_2582_516" style="mask-type:alpha" maskUnits="userSpaceOnUse" x="0" y="0" width="35" height="32">
    <path fill-rule="evenodd" clip-rule="evenodd" d="M13.9953 27.2616L14.9551 28.1486C14.8717 28.3939 14.8263 28.6577 14.8263 28.9324C14.8263 30.24 15.8542 31.2999 17.1222 31.2999C18.3902 31.2999 19.4181 30.24 19.4181 28.9324C19.4181 28.68 19.3798 28.4368 19.3089 28.2087L20.3362 27.2593L20.3848 27.2146C23.9301 23.9511 27.0114 21.1146 29.1898 18.4092C30.7428 16.4804 31.929 14.5088 32.4955 12.3715C33.4994 12.1185 34.2444 11.1848 34.2444 10.0716C34.2444 9.04093 33.6057 8.16407 32.7142 7.83895C31.9277 3.31201 28.1069 0 23.4573 0C21.8054 0 20.2937 0.650133 19.0498 1.46635C18.7051 1.69252 18.373 1.93661 18.0551 2.19231C17.7701 2.06143 17.4544 1.98869 17.1222 1.98869C16.8111 1.98869 16.5144 2.05251 16.2438 2.16816C15.9351 1.92124 15.613 1.68539 15.2792 1.46635C14.0353 0.650133 12.5236 0 10.8717 0C6.2326 0 2.41859 3.29707 1.62018 7.8083C0.681976 8.1058 0 9.00658 0 10.0716C0 11.2178 0.789911 12.1738 1.83901 12.3922C2.40767 14.5216 3.59119 16.4866 5.13921 18.4092C7.31755 21.1146 10.3989 23.9511 13.9442 27.2146L13.9953 27.2616ZM1.46892 9.3459C1.6681 9.10478 1.96469 8.95185 2.29593 8.95185C2.66163 8.95185 2.98512 9.13827 3.18189 9.42397C3.30781 9.60681 3.38184 9.83028 3.38184 10.0716C3.38184 10.6901 2.89565 11.1914 2.29591 11.1914C1.69616 11.1914 1.20997 10.6901 1.20997 10.0716C1.20997 9.79471 1.30744 9.54136 1.46892 9.3459ZM18.2081 28.9324C18.2081 28.8898 18.2059 28.8478 18.2014 28.8065C18.182 28.6284 18.1222 28.4629 18.0316 28.3201C17.8455 28.0269 17.5295 27.8291 17.1679 27.8137L17.1607 27.8133C17.1479 27.8129 17.1351 27.8127 17.1222 27.8127C16.5225 27.8127 16.0363 28.314 16.0363 28.9325C16.0363 28.9835 16.0396 29.0338 16.046 29.083C16.0499 29.1126 16.0548 29.1417 16.0609 29.1705C16.1667 29.6746 16.6017 30.0522 17.1222 30.0522C17.722 30.0522 18.2081 29.5509 18.2081 28.9324ZM31.9485 11.1914C31.6342 11.1914 31.3511 11.0537 31.1528 10.8337C31.1245 10.8022 31.0979 10.7691 31.0732 10.7345C30.9408 10.5489 30.8626 10.3197 30.8626 10.0716C30.8626 9.78177 30.9694 9.51764 31.1446 9.3188C31.3432 9.09334 31.6299 8.95185 31.9485 8.95185C32.2839 8.95185 32.5838 9.10866 32.783 9.35505C32.8115 9.39025 32.8379 9.42728 32.862 9.46594C32.9711 9.64055 33.0344 9.84845 33.0344 10.0716C33.0344 10.6901 32.5483 11.1914 31.9485 11.1914Z" fill="#211814"/>
    </mask>
    <g mask="url(#mask0_2582_516)">
    <path d="M35 14.4987C34.9967 18.71 33.5584 22.7945 30.9225 26.0781C28.2866 29.3617 24.6105 31.6482 20.5008 32.5604C16.3911 33.4726 12.0933 32.9561 8.3165 31.0959C4.53975 29.2357 1.50971 26.1431 -0.273692 22.3283C-1.69999 19.259 -2.2587 15.8576 -1.8892 12.4931C-1.51969 9.1286 -0.236073 5.92964 1.82233 3.24339C2.43024 2.45218 3.10021 1.71069 3.82588 1.02598C7.15354 -2.10581 11.5222 -3.89455 16.0898 -3.99548C20.6574 -4.09642 25.1008 -2.50241 28.5634 0.479332C30.5826 2.21423 32.2031 4.36518 33.3141 6.78489C34.425 9.20461 35.0001 11.8359 35 14.4987Z" fill="#E0F1FA"/>
    <path d="M34.9998 14.4983C35.0026 16.4995 34.665 18.4725 34.0293 20.37C33.7491 19.9018 33.9125 18.5743 33.9125 18.5743C33.3094 19.2226 32.8745 20.009 32.646 20.8646C32.2424 22.3223 31.9342 22.5999 31.8053 22.5074C31.6764 22.4148 31.7717 21.2066 31.5251 20.8029C31.2785 20.3993 31.5559 19.8442 31.0599 19.7825C30.5639 19.7209 30.7797 18.9135 29.8858 18.8518C28.9919 18.7902 28.9247 18.6052 28.1821 18.4201C27.5992 18.2772 27.4563 17.6548 27.4199 17.3913C27.4182 17.3778 27.4131 17.365 27.4051 17.354C27.3972 17.343 27.3866 17.3341 27.3743 17.3283C27.362 17.3224 27.3485 17.3197 27.3349 17.3204C27.3214 17.3212 27.3082 17.3253 27.2966 17.3324C27.1313 17.4446 26.8539 17.7417 26.9435 18.4538C27.0668 19.4461 27.2238 19.5975 27.7478 19.3508C28.2718 19.1041 28.8014 18.8547 29.0508 19.7545C29.3002 20.6544 28.311 21.0721 27.5544 21.7561C26.7978 22.4401 25.5705 22.6868 25.3855 22.2186C25.1206 21.5745 24.7669 20.9706 24.3347 20.4245C23.8696 19.8638 23.7463 18.4622 23.5921 18.2575C23.438 18.0529 22.4461 18.1959 23.0317 18.7537C23.6174 19.3116 23.962 21.2599 24.3936 21.7224C24.8251 22.185 24.6402 23.1493 25.6293 23.3035C26.6185 23.4577 27.9831 21.4141 27.2714 23.1157C26.5596 24.8173 24.5365 26.3983 24.0405 27.0179C23.5445 27.6374 24.1638 28.9101 23.6706 29.0923C23.1774 29.2745 22.3704 29.9333 22.1518 30.494C21.9333 31.0546 20.0502 31.7919 19.6467 32.1339C19.2432 32.4759 18.2456 32.2264 17.8533 31.8227C17.461 31.4191 16.172 30.7014 16.8305 29.6249C17.489 28.5485 16.8305 27.3655 16.3654 26.7151C15.9002 26.0647 16.6764 25.3835 16.1188 25.5069C15.5611 25.6302 15.4378 25.1957 14.8802 24.8257C14.3226 24.4557 12.078 25.0443 10.8899 24.8257C9.7018 24.607 9.0601 21.9131 8.75186 20.7917C8.44362 19.6704 10.5957 18.3192 10.6854 17.7081C10.775 17.097 11.201 16.612 12.1677 16.5139C13.1345 16.4158 15.6956 15.8103 16.2729 15.8663C16.8501 15.9224 17.9542 17.7501 18.5342 17.7642C19.1143 17.7782 19.0947 17.3997 19.3329 17.1306C19.571 16.8615 21.3644 17.8006 21.824 17.61C22.2835 17.4193 22.6646 17.5315 23.0653 17.2175C23.466 16.9035 23.4156 16.3429 23.3456 15.8551C23.2755 15.3673 22.9813 15.7346 22.5049 15.8831C22.292 15.957 22.0632 15.9723 21.8423 15.9274C21.6215 15.8825 21.4168 15.7791 21.2495 15.628C20.9273 15.3309 21.2495 15.101 21.4401 14.56C21.6306 14.0189 22.1126 14.2096 22.5609 13.8984C23.0093 13.5872 23.8976 14.3021 24.6261 13.9937C25.3547 13.6853 23.6678 13.2368 23.452 12.7238C23.2363 12.2108 21.9193 12.0903 21.4905 12.6649C21.0618 13.2396 21.3672 13.2256 21.2103 13.6881C21.0534 14.1507 21.3196 14.1563 21.129 14.3637C20.9385 14.5712 20.7984 14.2572 20.3921 14.4871C19.9858 14.717 20.4929 15.5383 19.9998 15.8607C19.5066 16.1831 19.4001 15.0702 19.3469 14.5852C19.2936 14.1002 18.8173 13.8031 18.4474 13.59C18.0775 13.377 17.4498 12.2809 16.9426 12.6902C16.4354 13.0995 17.2508 13.3882 17.4498 13.6657C17.6487 13.9432 18.3045 14.1563 18.5875 14.2488C18.6793 14.2703 18.7595 14.3261 18.8116 14.4048C18.8637 14.4835 18.8837 14.5791 18.8677 14.6721C18.8677 14.7478 18.7108 14.7338 18.5482 14.717C18.3857 14.7001 18.1643 14.6245 18.3017 14.916C18.439 15.2075 18.2708 15.3085 18.1559 15.4935C18.041 15.6785 17.8337 15.6084 17.915 15.2776C17.9962 14.9468 17.4946 14.3722 17.0183 14.204C16.5419 14.0358 16.3177 13.0434 15.8974 13.1163C15.4771 13.1892 15.4182 13.3714 14.7765 13.4218C14.6196 13.4218 14.4599 13.3461 14.4655 13.4218C14.472 13.4476 14.472 13.4746 14.4655 13.5003C14.3618 14.3581 13.9051 14.4086 13.5043 14.6889C13.1036 14.9693 13.2241 15.4711 12.8963 15.8103C12.5684 16.1495 10.0941 16.3709 10.8479 15.129C11.6017 13.8872 10.3183 13.918 11.2038 13.4471C12.0892 12.9761 12.9999 13.4218 13.1485 12.6902C13.297 11.9585 12.6189 12.6117 12.3414 11.8492C12.064 11.0867 13.6304 10.8092 14.1432 10.5316C14.656 10.2541 14.4655 9.5729 14.9475 9.72427C15.4294 9.87565 15.7601 9.22808 15.4126 8.8272C15.0651 8.42633 15.8806 7.64982 16.0823 7.90211C16.4158 8.32541 15.8329 8.67302 15.931 9.4187C16.0011 9.97936 16.385 9.85042 16.9426 9.90088C17.5002 9.95134 18.764 8.77955 19.1395 8.30859C19.515 7.83764 19.3945 7.5489 19.798 7.44798C20.2015 7.34706 20.6835 6.81443 20.3781 6.56213C20.0726 6.30984 19.5935 6.71351 19.0414 6.84247C18.4894 6.97142 18.6099 6.64063 18.509 6.1108C18.4081 5.58098 18.7108 5.6034 19.0694 5.22776C19.4281 4.85212 19.5991 4.51852 19.2236 4.56898C18.9584 4.61719 18.7064 4.72106 18.4842 4.87374C18.262 5.02643 18.0747 5.22447 17.9346 5.45483C17.503 6.05754 17.6544 6.33507 17.8561 6.94338C17.9598 7.26296 18.0971 7.66664 17.8925 7.96659C17.688 8.26654 17.702 8.42353 17.3321 8.70386C16.7268 9.18042 16.5531 8.488 16.5727 8.01705C16.5951 7.34145 16.3149 7.31622 16.0991 7.29099C15.8834 7.26576 15.5695 7.69747 15.096 7.85165C14.3366 8.08713 14.6448 7.16485 14.5075 6.60699C14.3702 6.04913 16.172 5.32587 16.5139 4.13727C16.6727 3.7302 16.9141 3.36042 17.2227 3.05118C17.5313 2.74194 17.9006 2.49993 18.3073 2.34036C19.0582 2.09927 19.8316 2.46651 20.364 2.53379C21.4849 2.67395 22.0453 4.21577 22.6618 4.21577C23.2783 4.21577 25.2639 2.90414 25.6534 2.04633C25.9336 1.42119 28.2209 0.527871 28.5533 0.469116C30.5711 2.20713 32.2163 4.35687 33.3244 6.77907C34.4325 9.20126 35.004 11.8345 34.9998 14.4983Z" fill="url(#paint0_linear_2582_516)"/>
    <path d="M12.2575 7.54058C12.4621 7.4705 12.7843 7.68916 12.8179 7.68916C12.8516 7.68916 12.7451 8.72638 13.0393 8.98989C13.3335 9.2534 13.3448 9.83088 13.5353 9.70754C13.7259 9.58419 14.0621 9.63465 13.9893 9.929C13.9164 10.2233 13.199 10.4028 12.9833 10.5065C12.7675 10.6102 12.308 10.8205 12.1426 10.9354C11.9773 11.0503 12.392 10.2318 12.591 10.0944C12.7115 10.0159 12.3108 9.87574 12.3108 9.62624C12.3291 9.42606 12.3734 9.22911 12.4425 9.04035C12.4621 8.92822 12.0081 8.54978 11.8988 8.35354C11.7896 8.15731 12.0502 7.61627 12.2575 7.54058Z" fill="url(#paint1_linear_2582_516)"/>
    <path d="M11.4976 9.03477C11.5816 8.9703 11.7049 8.84976 11.831 8.90021C11.9571 8.95067 12.0103 9.18055 11.9991 9.3095C11.9879 9.43845 11.8422 9.54497 11.8422 9.69635C11.8422 9.84773 11.9655 10.1813 11.7694 10.2374C11.5732 10.2935 11.2285 10.2991 11.1557 10.4336C11.0828 10.5682 10.8755 10.6018 10.8418 10.4617C10.8171 10.3886 10.8118 10.3103 10.8265 10.2346C10.8413 10.1589 10.8755 10.0884 10.9259 10.0299C11.0548 9.90099 10.9427 9.85894 10.8979 9.66832C10.8776 9.60433 10.8752 9.53601 10.891 9.47077C10.9068 9.40553 10.9402 9.34587 10.9876 9.29828C11.066 9.20858 11.1109 9.46648 11.2341 9.37678C11.3105 9.25436 11.3987 9.1398 11.4976 9.03477Z" fill="url(#paint2_linear_2582_516)"/>
    <path d="M24.8527 -0.925626C24.8527 -0.925626 24.4015 -0.541573 24.2278 -0.561196C24.0541 -0.580819 23.7094 -0.213586 23.7094 -0.0229612C23.7094 0.167664 23.7262 0.638619 23.7094 0.949786C23.6926 1.26095 23.6029 1.54128 23.9672 1.62819C24.3315 1.71509 24.976 2.04588 25.0264 1.87207C25.0769 1.69827 24.3287 1.3843 24.3567 0.812424C24.3847 0.240549 24.4548 -0.213586 24.8191 -0.367768C25.1834 -0.521949 25.2702 -0.664918 25.1133 -0.80228C24.9564 -0.939642 25.1049 -1.11625 24.8527 -0.925626Z" fill="url(#paint3_linear_2582_516)"/>
    <path d="M12.2605 -2.31874C11.885 -1.65155 10.5988 -0.776917 10.3886 -0.0760913C10.1785 0.624735 9.8562 2.46931 8.70731 3.18135C7.55842 3.89339 5.36152 4.64187 4.85994 5.6847C4.35835 6.72753 4.48725 7.64702 4.11176 7.51806C3.73627 7.38911 2.56496 6.14444 3.02732 4.80727C3.48968 3.47009 4.40318 3.40561 4.36115 2.28429C4.32472 1.19941 3.85676 1.03121 3.80072 1.0172C5.69139 -0.762424 7.9363 -2.12271 10.3886 -2.97471C10.3886 -2.97471 12.636 -2.98873 12.2605 -2.31874Z" fill="url(#paint4_linear_2582_516)"/>
    <path d="M0.785385 8.69808C0.785385 9.07373 1.95389 9.81941 1.41307 10.5511C0.872253 11.2827 -0.26823 10.7837 -0.422349 11.6191C-0.576468 12.4545 -0.142132 13.0404 -0.632512 13.374C-1.10796 13.7232 -1.56442 14.0975 -1.99997 14.4953C-2.00736 10.4219 -0.663024 6.46117 1.82219 3.23444L1.90625 3.198C1.90625 3.198 2.07999 4.36137 2.07999 4.52676C2.07999 4.69216 1.7045 6.20875 1.4551 6.44703C1.20571 6.68531 0.0932498 7.08899 0.0932498 7.54032C0.0932498 7.99165 0.841429 7.21513 0.886263 7.54032C0.931098 7.8655 0.785385 8.32244 0.785385 8.69808Z" fill="url(#paint5_linear_2582_516)"/>
    <path d="M8.51964 4.66401C8.42717 4.90229 8.65414 5.28915 8.51964 5.46015C8.38513 5.63115 8.48321 5.74048 8.88392 5.71245C9.28463 5.68442 9.2482 6.12173 9.47518 5.95073C9.70031 5.76093 9.90932 5.55277 10.1001 5.3284C10.3971 5.01723 10.6465 4.52665 10.327 4.45937C10.0076 4.39209 9.73578 4.5631 9.46957 4.5631C9.20337 4.5631 8.84749 4.38088 8.72139 4.44255C8.6353 4.4967 8.56556 4.57325 8.51964 4.66401Z" fill="url(#paint6_linear_2582_516)"/>
    <path d="M5.34146 28.1199C5.47261 28.4878 5.48728 28.8872 5.38349 29.2637H5.35827C2.94371 27.4458 1.01011 25.0649 -0.274085 22.3283C-0.276343 22.242 -0.296376 22.1571 -0.332931 22.0788C-0.341849 22.0677 -0.345974 22.0534 -0.344397 22.0392C-0.342821 22.025 -0.335672 22.0121 -0.324524 22.0031C-0.313377 21.9942 -0.299143 21.9901 -0.284954 21.9917C-0.270765 21.9932 -0.257784 22.0004 -0.248866 22.0115C0.132411 22.4117 0.539606 22.7863 0.970077 23.1329C1.5137 23.5337 2.17221 23.6431 2.4272 24.5513C2.6822 25.4596 2.86154 25.2438 3.5901 25.426C4.31867 25.6082 5.81503 25.8997 5.81503 26.7379C5.81503 27.5761 5.1369 27.464 5.34146 28.1199Z" fill="url(#paint7_linear_2582_516)"/>
    <path d="M24.508 28.7951C24.508 28.7951 25.6877 28.4223 25.8138 28.1308C25.9399 27.8392 26.2033 28.0747 25.9652 28.4615C25.6639 28.8594 25.3251 29.2273 24.9536 29.5604C24.9536 29.5604 24.4128 30.379 24.0933 30.2949C23.7739 30.2108 24.2867 29.7539 24.3427 29.3642C24.3988 28.9745 24.3007 29.0054 24.508 28.7951Z" fill="url(#paint8_linear_2582_516)"/>
    </g>
    <path fill-rule="evenodd" clip-rule="evenodd" d="M13.9953 27.2616L14.9551 28.1486C14.8717 28.3939 14.8263 28.6577 14.8263 28.9324C14.8263 30.24 15.8542 31.2999 17.1222 31.2999C18.3902 31.2999 19.4181 30.24 19.4181 28.9324C19.4181 28.68 19.3798 28.4368 19.3089 28.2087L20.3362 27.2593L20.3848 27.2146C23.9301 23.9511 27.0114 21.1146 29.1898 18.4092C30.7428 16.4804 31.929 14.5088 32.4955 12.3715C33.4994 12.1185 34.2444 11.1848 34.2444 10.0716C34.2444 9.04093 33.6057 8.16407 32.7142 7.83895C31.9277 3.31201 28.1069 0 23.4573 0C21.8054 0 20.2937 0.650133 19.0498 1.46635C18.7051 1.69252 18.373 1.93661 18.0551 2.19231C17.7701 2.06143 17.4544 1.98869 17.1222 1.98869C16.8111 1.98869 16.5144 2.05251 16.2438 2.16816C15.9351 1.92124 15.613 1.68539 15.2792 1.46635C14.0353 0.650133 12.5236 0 10.8717 0C6.2326 0 2.41859 3.29707 1.62018 7.8083C0.681976 8.1058 0 9.00658 0 10.0716C0 11.2178 0.789911 12.1738 1.83901 12.3922C2.40767 14.5216 3.59119 16.4866 5.13921 18.4092C7.31755 21.1146 10.3989 23.9511 13.9442 27.2146L13.9953 27.2616ZM3.53172 12.0672C4.754 16.3783 9.07992 20.3674 15.1368 25.943L16.0853 26.8195C16.3968 26.6567 16.7491 26.5649 17.1222 26.5649C17.5168 26.5649 17.8881 26.6676 18.2125 26.8484L19.1922 25.943C25.2278 20.387 29.5446 16.4064 30.7843 12.1126C30.107 11.7009 29.6526 10.941 29.6526 10.0716C29.6526 9.11966 30.1975 8.29893 30.9831 7.92294C30.2553 4.35907 27.2058 1.76762 23.4573 1.76762C21.964 1.76762 20.5075 2.49431 19.2528 3.47247C19.3594 3.74553 19.4181 4.0438 19.4181 4.3562C19.4181 5.66374 18.3902 6.72371 17.1222 6.72371C15.8542 6.72371 14.8263 5.66374 14.8263 4.3562C14.8263 4.02466 14.8924 3.70904 15.0117 3.42258C13.7717 2.46971 12.3395 1.76762 10.8717 1.76762C7.10965 1.76762 4.05173 4.37779 3.33811 7.96151C4.08225 8.35312 4.59181 9.151 4.59181 10.0716C4.59181 10.91 4.16922 11.6466 3.53172 12.0672ZM1.46892 9.3459C1.6681 9.10478 1.96469 8.95185 2.29593 8.95185C2.66163 8.95185 2.98512 9.13827 3.18189 9.42397C3.30781 9.60681 3.38184 9.83028 3.38184 10.0716C3.38184 10.6901 2.89565 11.1914 2.29591 11.1914C1.69616 11.1914 1.20997 10.6901 1.20997 10.0716C1.20997 9.79471 1.30744 9.54136 1.46892 9.3459ZM18.2081 28.9324C18.2081 28.8898 18.2059 28.8478 18.2014 28.8065C18.182 28.6284 18.1222 28.4629 18.0316 28.3201C17.8455 28.0269 17.5295 27.8291 17.1679 27.8137L17.1607 27.8133C17.1479 27.8129 17.1351 27.8127 17.1222 27.8127C16.5225 27.8127 16.0363 28.314 16.0363 28.9325C16.0363 28.9835 16.0396 29.0338 16.046 29.083C16.0499 29.1126 16.0548 29.1417 16.0609 29.1705C16.1667 29.6746 16.6017 30.0522 17.1222 30.0522C17.722 30.0522 18.2081 29.5509 18.2081 28.9324ZM31.9485 11.1914C31.6342 11.1914 31.3511 11.0537 31.1528 10.8337C31.1245 10.8022 31.0979 10.7691 31.0732 10.7345C30.9408 10.5489 30.8626 10.3197 30.8626 10.0716C30.8626 9.78177 30.9694 9.51764 31.1446 9.3188C31.3432 9.09334 31.6299 8.95185 31.9485 8.95185C32.2839 8.95185 32.5838 9.10866 32.783 9.35505C32.8115 9.39025 32.8379 9.42728 32.862 9.46594C32.9711 9.64055 33.0344 9.84845 33.0344 10.0716C33.0344 10.6901 32.5483 11.1914 31.9485 11.1914ZM17.1222 3.23645C17.4971 3.23645 17.8276 3.43229 18.0227 3.73016C18.119 3.87717 18.1824 4.04904 18.2018 4.23448C18.206 4.27446 18.2081 4.31507 18.2081 4.3562C18.2081 4.97465 17.722 5.476 17.1222 5.476C16.5225 5.476 16.0363 4.97465 16.0363 4.3562C16.0363 4.33842 16.0367 4.32073 16.0375 4.30314C16.0644 3.70934 16.5397 3.23645 17.1222 3.23645Z" fill="url(#paint9_linear_2582_516)"/>
</svg>
