<svg width="23" height="23" viewBox="0 0 23 23" fill="none" xmlns="http://www.w3.org/2000/svg">
<path d="M14.4038 5.75839H8.59369C8.22135 5.75822 7.85263 5.8314 7.50858 5.97377C7.16454 6.11614 6.85191 6.3249 6.58856 6.58813C6.32522 6.85135 6.11631 7.16388 5.97379 7.50786C5.83126 7.85184 5.7579 8.22054 5.7579 8.59288V14.403C5.75773 14.7754 5.83096 15.1443 5.97341 15.4884C6.11586 15.8325 6.32474 16.1452 6.5881 16.4086C6.85146 16.6719 7.16415 16.8808 7.50828 17.0233C7.85241 17.1657 8.22124 17.239 8.59369 17.2388H14.4038C14.7763 17.239 15.1451 17.1657 15.4892 17.0233C15.8334 16.8808 16.146 16.6719 16.4094 16.4086C16.6728 16.1452 16.8816 15.8325 17.0241 15.4884C17.1665 15.1443 17.2398 14.7754 17.2396 14.403V8.59288C17.2396 8.22054 17.1662 7.85184 17.0237 7.50786C16.8812 7.16388 16.6723 6.85135 16.4089 6.58813C16.1456 6.3249 15.833 6.11614 15.4889 5.97377C15.1449 5.8314 14.7762 5.75822 14.4038 5.75839ZM11.4988 15.2171C10.7634 15.2171 10.0446 14.9991 9.4332 14.5906C8.82179 14.182 8.34526 13.6014 8.06386 12.922C7.78246 12.2427 7.70884 11.4951 7.85229 10.7739C7.99575 10.0527 8.34984 9.39025 8.8698 8.87029C9.38976 8.35033 10.0522 7.99624 10.7734 7.85278C11.4946 7.70932 12.2422 7.78295 12.9215 8.06435C13.6009 8.34575 14.1815 8.82228 14.5901 9.43369C14.9986 10.0451 15.2167 10.7639 15.2167 11.4992C15.2153 12.4849 14.8231 13.4297 14.1262 14.1267C13.4292 14.8236 12.4844 15.2158 11.4988 15.2171ZM15.2376 8.69873C15.0566 8.69873 14.8798 8.64508 14.7293 8.54456C14.5789 8.44405 14.4617 8.30118 14.3924 8.13402C14.3232 7.96687 14.3051 7.78294 14.3404 7.60549C14.3757 7.42804 14.4628 7.26505 14.5907 7.13711C14.7187 7.00918 14.8816 6.92206 15.0591 6.88676C15.2365 6.85146 15.4205 6.86958 15.5876 6.93882C15.7548 7.00805 15.8976 7.1253 15.9982 7.27573C16.0987 7.42617 16.1523 7.60303 16.1523 7.78396C16.1523 8.02657 16.056 8.25924 15.8844 8.4308C15.7128 8.60235 15.4802 8.69873 15.2376 8.69873ZM11.4988 9.22668C11.0493 9.22668 10.6099 9.35997 10.2362 9.60968C9.86247 9.85939 9.57119 10.2143 9.39918 10.6296C9.22718 11.0448 9.18218 11.5018 9.26986 11.9426C9.35755 12.3834 9.57399 12.7884 9.89181 13.1062C10.2096 13.424 10.6146 13.6404 11.0554 13.7281C11.4962 13.8158 11.9532 13.7708 12.3684 13.5988C12.7837 13.4268 13.1386 13.1355 13.3883 12.7618C13.638 12.3881 13.7713 11.9487 13.7713 11.4992C13.7713 10.8965 13.5319 10.3185 13.1057 9.8923C12.6795 9.46611 12.1015 9.22668 11.4988 9.22668ZM14.4038 5.75839H8.59369C8.22135 5.75822 7.85263 5.8314 7.50858 5.97377C7.16454 6.11614 6.85191 6.3249 6.58856 6.58813C6.32522 6.85135 6.11631 7.16388 5.97379 7.50786C5.83126 7.85184 5.7579 8.22054 5.7579 8.59288V14.403C5.75773 14.7754 5.83096 15.1443 5.97341 15.4884C6.11586 15.8325 6.32474 16.1452 6.5881 16.4086C6.85146 16.6719 7.16415 16.8808 7.50828 17.0233C7.85241 17.1657 8.22124 17.239 8.59369 17.2388H14.4038C14.7763 17.239 15.1451 17.1657 15.4892 17.0233C15.8334 16.8808 16.146 16.6719 16.4094 16.4086C16.6728 16.1452 16.8816 15.8325 17.0241 15.4884C17.1665 15.1443 17.2398 14.7754 17.2396 14.403V8.59288C17.2396 8.22054 17.1662 7.85184 17.0237 7.50786C16.8812 7.16388 16.6723 6.85135 16.4089 6.58813C16.1456 6.3249 15.833 6.11614 15.4889 5.97377C15.1449 5.8314 14.7762 5.75822 14.4038 5.75839ZM11.4988 15.2171C10.7634 15.2171 10.0446 14.9991 9.4332 14.5906C8.82179 14.182 8.34526 13.6014 8.06386 12.922C7.78246 12.2427 7.70884 11.4951 7.85229 10.7739C7.99575 10.0527 8.34984 9.39025 8.8698 8.87029C9.38976 8.35033 10.0522 7.99624 10.7734 7.85278C11.4946 7.70932 12.2422 7.78295 12.9215 8.06435C13.6009 8.34575 14.1815 8.82228 14.5901 9.43369C14.9986 10.0451 15.2167 10.7639 15.2167 11.4992C15.2153 12.4849 14.8231 13.4297 14.1262 14.1267C13.4292 14.8236 12.4844 15.2158 11.4988 15.2171ZM15.2376 8.69873C15.0566 8.69873 14.8798 8.64508 14.7293 8.54456C14.5789 8.44405 14.4617 8.30118 14.3924 8.13402C14.3232 7.96687 14.3051 7.78294 14.3404 7.60549C14.3757 7.42804 14.4628 7.26505 14.5907 7.13711C14.7187 7.00918 14.8816 6.92206 15.0591 6.88676C15.2365 6.85146 15.4205 6.86958 15.5876 6.93882C15.7548 7.00805 15.8976 7.1253 15.9982 7.27573C16.0987 7.42617 16.1523 7.60303 16.1523 7.78396C16.1523 8.02657 16.056 8.25924 15.8844 8.4308C15.7128 8.60235 15.4802 8.69873 15.2376 8.69873ZM11.4988 9.22668C11.0493 9.22668 10.6099 9.35997 10.2362 9.60968C9.86247 9.85939 9.57119 10.2143 9.39918 10.6296C9.22718 11.0448 9.18218 11.5018 9.26986 11.9426C9.35755 12.3834 9.57399 12.7884 9.89181 13.1062C10.2096 13.424 10.6146 13.6404 11.0554 13.7281C11.4962 13.8158 11.9532 13.7708 12.3684 13.5988C12.7837 13.4268 13.1386 13.1355 13.3883 12.7618C13.638 12.3881 13.7713 11.9487 13.7713 11.4992C13.7713 10.8965 13.5319 10.3185 13.1057 9.8923C12.6795 9.46611 12.1015 9.22668 11.4988 9.22668ZM22.6067 4.1118C22.5049 3.15971 22.08 2.27123 21.4028 1.59429C20.7256 0.91734 19.837 0.492777 18.8849 0.391285C13.9765 -0.132381 9.02626 -0.132381 4.11784 0.391285C3.16478 0.491654 2.27494 0.915722 1.5967 1.59277C0.918466 2.26981 0.492838 3.15891 0.390797 4.1118C-0.13287 9.02022 -0.13287 13.9704 0.390797 18.8788C0.490938 19.8323 0.91507 20.7226 1.59241 21.4012C2.26974 22.0797 3.1593 22.5054 4.11262 22.6072C9.0209 23.1334 13.9714 23.1334 18.8797 22.6072C19.8331 22.5067 20.7233 22.0823 21.4016 21.4047C22.0798 20.7271 22.5052 19.8374 22.6067 18.8841C23.1307 13.9739 23.1307 9.02194 22.6067 4.1118ZM18.6863 14.403C18.6856 15.5387 18.2342 16.6277 17.4313 17.4308C16.6283 18.234 15.5395 18.6857 14.4038 18.6867H8.59369C7.45812 18.6854 6.36947 18.2335 5.56662 17.4304C4.76377 16.6274 4.31229 15.5386 4.31125 14.403V8.59288C4.31264 7.45765 4.76431 6.36933 5.56716 5.56672C6.37001 4.76412 7.45847 4.31278 8.59369 4.31174H14.4038C15.539 4.31278 16.6275 4.76412 17.4303 5.56672C18.2332 6.36933 18.6849 7.45765 18.6863 8.59288V14.403ZM14.4038 5.75839H8.59369C8.22135 5.75822 7.85263 5.8314 7.50858 5.97377C7.16454 6.11614 6.85191 6.3249 6.58856 6.58813C6.32522 6.85135 6.11631 7.16388 5.97379 7.50786C5.83126 7.85184 5.7579 8.22054 5.7579 8.59288V14.403C5.75773 14.7754 5.83096 15.1443 5.97341 15.4884C6.11586 15.8325 6.32474 16.1452 6.5881 16.4086C6.85146 16.6719 7.16415 16.8808 7.50828 17.0233C7.85241 17.1657 8.22124 17.239 8.59369 17.2388H14.4038C14.7763 17.239 15.1451 17.1657 15.4892 17.0233C15.8334 16.8808 16.146 16.6719 16.4094 16.4086C16.6728 16.1452 16.8816 15.8325 17.0241 15.4884C17.1665 15.1443 17.2398 14.7754 17.2396 14.403V8.59288C17.2396 8.22054 17.1662 7.85184 17.0237 7.50786C16.8812 7.16388 16.6723 6.85135 16.4089 6.58813C16.1456 6.3249 15.833 6.11614 15.4889 5.97377C15.1449 5.8314 14.7762 5.75822 14.4038 5.75839ZM11.4988 15.2171C10.7634 15.2171 10.0446 14.9991 9.4332 14.5906C8.82179 14.182 8.34526 13.6014 8.06386 12.922C7.78246 12.2427 7.70884 11.4951 7.85229 10.7739C7.99575 10.0527 8.34984 9.39025 8.8698 8.87029C9.38976 8.35033 10.0522 7.99624 10.7734 7.85278C11.4946 7.70932 12.2422 7.78295 12.9215 8.06435C13.6009 8.34575 14.1815 8.82228 14.5901 9.43369C14.9986 10.0451 15.2167 10.7639 15.2167 11.4992C15.2153 12.4849 14.8231 13.4297 14.1262 14.1267C13.4292 14.8236 12.4844 15.2158 11.4988 15.2171ZM15.2376 8.69873C15.0566 8.69873 14.8798 8.64508 14.7293 8.54456C14.5789 8.44405 14.4617 8.30118 14.3924 8.13402C14.3232 7.96687 14.3051 7.78294 14.3404 7.60549C14.3757 7.42804 14.4628 7.26505 14.5907 7.13711C14.7187 7.00918 14.8816 6.92206 15.0591 6.88676C15.2365 6.85146 15.4205 6.86958 15.5876 6.93882C15.7548 7.00805 15.8976 7.1253 15.9982 7.27573C16.0987 7.42617 16.1523 7.60303 16.1523 7.78396C16.1523 8.02657 16.056 8.25924 15.8844 8.4308C15.7128 8.60235 15.4802 8.69873 15.2376 8.69873ZM11.4988 9.22668C11.0493 9.22668 10.6099 9.35997 10.2362 9.60968C9.86247 9.85939 9.57119 10.2143 9.39918 10.6296C9.22718 11.0448 9.18218 11.5018 9.26986 11.9426C9.35755 12.3834 9.57399 12.7884 9.89181 13.1062C10.2096 13.424 10.6146 13.6404 11.0554 13.7281C11.4962 13.8158 11.9532 13.7708 12.3684 13.5988C12.7837 13.4268 13.1386 13.1355 13.3883 12.7618C13.638 12.3881 13.7713 11.9487 13.7713 11.4992C13.7713 10.8965 13.5319 10.3185 13.1057 9.8923C12.6795 9.46611 12.1015 9.22668 11.4988 9.22668Z" fill="#E03A68"/>
</svg>
