<svg width="34" height="34" viewBox="0 0 34 34" fill="none" xmlns="http://www.w3.org/2000/svg">
<g clip-path="url(#clip0_565_262)">
<path d="M21.2935 8.51286H12.7047C12.1542 8.5126 11.6092 8.6208 11.1006 8.83125C10.592 9.04171 10.1298 9.35032 9.74055 9.73943C9.35126 10.1285 9.04244 10.5905 8.83175 11.099C8.62106 11.6075 8.51261 12.1526 8.51261 12.703V21.2918C8.51236 21.8424 8.62062 22.3876 8.8312 22.8964C9.04178 23.4051 9.35055 23.8673 9.73987 24.2566C10.1292 24.6459 10.5914 24.9547 11.1001 25.1653C11.6088 25.3759 12.1541 25.4841 12.7047 25.4839H21.2935C21.8441 25.4841 22.3893 25.3759 22.8981 25.1653C23.4068 24.9547 23.869 24.6459 24.2583 24.2566C24.6476 23.8673 24.9564 23.4051 25.167 22.8964C25.3776 22.3876 25.4858 21.8424 25.4856 21.2918V12.703C25.4856 12.1526 25.3771 11.6075 25.1664 11.099C24.9557 10.5905 24.6469 10.1285 24.2576 9.73943C23.8683 9.35032 23.4062 9.04171 22.8976 8.83125C22.389 8.6208 21.8439 8.5126 21.2935 8.51286ZM16.9991 22.4954C15.9121 22.4954 14.8495 22.173 13.9457 21.5691C13.0418 20.9652 12.3374 20.1068 11.9214 19.1026C11.5054 18.0983 11.3966 16.9932 11.6087 15.9271C11.8207 14.861 12.3442 13.8817 13.1128 13.1131C13.8814 12.3444 14.8607 11.821 15.9269 11.6089C16.993 11.3968 18.0981 11.5057 19.1023 11.9217C20.1066 12.3377 20.965 13.0421 21.5689 13.9459C22.1728 14.8497 22.4951 15.9123 22.4951 16.9993C22.4931 18.4563 21.9134 19.8531 20.8831 20.8834C19.8528 21.9136 18.4561 22.4933 16.9991 22.4954ZM22.526 12.8594C22.2586 12.8594 21.9971 12.7801 21.7747 12.6315C21.5524 12.483 21.379 12.2718 21.2767 12.0247C21.1743 11.7776 21.1476 11.5057 21.1997 11.2434C21.2519 10.981 21.3807 10.7401 21.5698 10.551C21.7589 10.3619 21.9999 10.2331 22.2622 10.1809C22.5245 10.1287 22.7964 10.1555 23.0435 10.2578C23.2906 10.3602 23.5018 10.5335 23.6504 10.7559C23.799 10.9783 23.8783 11.2397 23.8783 11.5072C23.8783 11.8658 23.7358 12.2098 23.4822 12.4634C23.2286 12.717 22.8847 12.8594 22.526 12.8594ZM16.9991 13.6399C16.3347 13.6399 15.6851 13.8369 15.1327 14.2061C14.5802 14.5752 14.1496 15.0999 13.8954 15.7137C13.6411 16.3276 13.5746 17.0031 13.7042 17.6547C13.8338 18.3064 14.1538 18.905 14.6236 19.3748C15.0934 19.8446 15.692 20.1646 16.3437 20.2942C16.9954 20.4238 17.6708 20.3573 18.2847 20.103C18.8985 19.8488 19.4232 19.4182 19.7924 18.8657C20.1615 18.3133 20.3585 17.6638 20.3585 16.9993C20.3585 16.1084 20.0046 15.2539 19.3746 14.6239C18.7446 13.9938 17.8901 13.6399 16.9991 13.6399ZM21.2935 8.51286H12.7047C12.1542 8.5126 11.6092 8.6208 11.1006 8.83125C10.592 9.04171 10.1298 9.35032 9.74055 9.73943C9.35126 10.1285 9.04244 10.5905 8.83175 11.099C8.62106 11.6075 8.51261 12.1526 8.51261 12.703V21.2918C8.51236 21.8424 8.62062 22.3876 8.8312 22.8964C9.04178 23.4051 9.35055 23.8673 9.73987 24.2566C10.1292 24.6459 10.5914 24.9547 11.1001 25.1653C11.6088 25.3759 12.1541 25.4841 12.7047 25.4839H21.2935C21.8441 25.4841 22.3893 25.3759 22.8981 25.1653C23.4068 24.9547 23.869 24.6459 24.2583 24.2566C24.6476 23.8673 24.9564 23.4051 25.167 22.8964C25.3776 22.3876 25.4858 21.8424 25.4856 21.2918V12.703C25.4856 12.1526 25.3771 11.6075 25.1664 11.099C24.9557 10.5905 24.6469 10.1285 24.2576 9.73943C23.8683 9.35032 23.4062 9.04171 22.8976 8.83125C22.389 8.6208 21.8439 8.5126 21.2935 8.51286ZM16.9991 22.4954C15.9121 22.4954 14.8495 22.173 13.9457 21.5691C13.0418 20.9652 12.3374 20.1068 11.9214 19.1026C11.5054 18.0983 11.3966 16.9932 11.6087 15.9271C11.8207 14.861 12.3442 13.8817 13.1128 13.1131C13.8814 12.3444 14.8607 11.821 15.9269 11.6089C16.993 11.3968 18.0981 11.5057 19.1023 11.9217C20.1066 12.3377 20.965 13.0421 21.5689 13.9459C22.1728 14.8497 22.4951 15.9123 22.4951 16.9993C22.4931 18.4563 21.9134 19.8531 20.8831 20.8834C19.8528 21.9136 18.4561 22.4933 16.9991 22.4954ZM22.526 12.8594C22.2586 12.8594 21.9971 12.7801 21.7747 12.6315C21.5524 12.483 21.379 12.2718 21.2767 12.0247C21.1743 11.7776 21.1476 11.5057 21.1997 11.2434C21.2519 10.981 21.3807 10.7401 21.5698 10.551C21.7589 10.3619 21.9999 10.2331 22.2622 10.1809C22.5245 10.1287 22.7964 10.1555 23.0435 10.2578C23.2906 10.3602 23.5018 10.5335 23.6504 10.7559C23.799 10.9783 23.8783 11.2397 23.8783 11.5072C23.8783 11.8658 23.7358 12.2098 23.4822 12.4634C23.2286 12.717 22.8847 12.8594 22.526 12.8594ZM16.9991 13.6399C16.3347 13.6399 15.6851 13.8369 15.1327 14.2061C14.5802 14.5752 14.1496 15.0999 13.8954 15.7137C13.6411 16.3276 13.5746 17.0031 13.7042 17.6547C13.8338 18.3064 14.1538 18.905 14.6236 19.3748C15.0934 19.8446 15.692 20.1646 16.3437 20.2942C16.9954 20.4238 17.6708 20.3573 18.2847 20.103C18.8985 19.8488 19.4232 19.4182 19.7924 18.8657C20.1615 18.3133 20.3585 17.6638 20.3585 16.9993C20.3585 16.1084 20.0046 15.2539 19.3746 14.6239C18.7446 13.9938 17.8901 13.6399 16.9991 13.6399ZM33.4195 6.07876C33.269 4.67134 32.6409 3.35793 31.6399 2.35723C30.6388 1.35652 29.3252 0.728909 27.9177 0.578878C20.6618 -0.195238 13.3441 -0.195238 6.08818 0.578878C4.67931 0.727249 3.36389 1.35413 2.36128 2.35498C1.35867 3.35584 0.729477 4.67016 0.578634 6.07876C-0.195482 13.3347 -0.195482 20.6524 0.578634 27.9083C0.726669 29.3178 1.35365 30.6339 2.35492 31.637C3.3562 32.64 4.6712 33.2693 6.08045 33.4198C13.3362 34.1977 20.6543 34.1977 27.91 33.4198C29.3195 33.2713 30.6353 32.6438 31.638 31.6422C32.6407 30.6406 33.2695 29.3253 33.4195 27.916C34.1942 20.6576 34.1942 13.3372 33.4195 6.07876ZM27.6241 21.2918C27.6231 22.9707 26.9558 24.5805 25.7689 25.7678C24.582 26.9551 22.9724 27.6228 21.2935 27.6243H12.7047C11.026 27.6223 9.41667 26.9544 8.22985 25.7672C7.04302 24.58 6.37562 22.9705 6.37409 21.2918V12.703C6.37613 11.0248 7.04382 9.41599 8.23065 8.22952C9.41747 7.04306 11.0265 6.37587 12.7047 6.37433H21.2935C22.9717 6.37587 24.5807 7.04306 25.7675 8.22952C26.9544 9.41599 27.622 11.0248 27.6241 12.703V21.2918ZM21.2935 8.51286H12.7047C12.1542 8.5126 11.6092 8.6208 11.1006 8.83125C10.592 9.04171 10.1298 9.35032 9.74055 9.73943C9.35126 10.1285 9.04244 10.5905 8.83175 11.099C8.62106 11.6075 8.51261 12.1526 8.51261 12.703V21.2918C8.51236 21.8424 8.62062 22.3876 8.8312 22.8964C9.04178 23.4051 9.35055 23.8673 9.73987 24.2566C10.1292 24.6459 10.5914 24.9547 11.1001 25.1653C11.6088 25.3759 12.1541 25.4841 12.7047 25.4839H21.2935C21.8441 25.4841 22.3893 25.3759 22.8981 25.1653C23.4068 24.9547 23.869 24.6459 24.2583 24.2566C24.6476 23.8673 24.9564 23.4051 25.167 22.8964C25.3776 22.3876 25.4858 21.8424 25.4856 21.2918V12.703C25.4856 12.1526 25.3771 11.6075 25.1664 11.099C24.9557 10.5905 24.6469 10.1285 24.2576 9.73943C23.8683 9.35032 23.4062 9.04171 22.8976 8.83125C22.389 8.6208 21.8439 8.5126 21.2935 8.51286ZM16.9991 22.4954C15.9121 22.4954 14.8495 22.173 13.9457 21.5691C13.0418 20.9652 12.3374 20.1068 11.9214 19.1026C11.5054 18.0983 11.3966 16.9932 11.6087 15.9271C11.8207 14.861 12.3442 13.8817 13.1128 13.1131C13.8814 12.3444 14.8607 11.821 15.9269 11.6089C16.993 11.3968 18.0981 11.5057 19.1023 11.9217C20.1066 12.3377 20.965 13.0421 21.5689 13.9459C22.1728 14.8497 22.4951 15.9123 22.4951 16.9993C22.4931 18.4563 21.9134 19.8531 20.8831 20.8834C19.8528 21.9136 18.4561 22.4933 16.9991 22.4954ZM22.526 12.8594C22.2586 12.8594 21.9971 12.7801 21.7747 12.6315C21.5524 12.483 21.379 12.2718 21.2767 12.0247C21.1743 11.7776 21.1476 11.5057 21.1997 11.2434C21.2519 10.981 21.3807 10.7401 21.5698 10.551C21.7589 10.3619 21.9999 10.2331 22.2622 10.1809C22.5245 10.1287 22.7964 10.1555 23.0435 10.2578C23.2906 10.3602 23.5018 10.5335 23.6504 10.7559C23.799 10.9783 23.8783 11.2397 23.8783 11.5072C23.8783 11.8658 23.7358 12.2098 23.4822 12.4634C23.2286 12.717 22.8847 12.8594 22.526 12.8594ZM16.9991 13.6399C16.3347 13.6399 15.6851 13.8369 15.1327 14.2061C14.5802 14.5752 14.1496 15.0999 13.8954 15.7137C13.6411 16.3276 13.5746 17.0031 13.7042 17.6547C13.8338 18.3064 14.1538 18.905 14.6236 19.3748C15.0934 19.8446 15.692 20.1646 16.3437 20.2942C16.9954 20.4238 17.6708 20.3573 18.2847 20.103C18.8985 19.8488 19.4232 19.4182 19.7924 18.8657C20.1615 18.3133 20.3585 17.6638 20.3585 16.9993C20.3585 16.1084 20.0046 15.2539 19.3746 14.6239C18.7446 13.9938 17.8901 13.6399 16.9991 13.6399Z" fill="#E03A68"/>
</g>
<defs>
<clipPath id="clip0_565_262">
<rect width="34" height="34" fill="white"/>
</clipPath>
</defs>
</svg>
