<svg width="59" height="49" viewBox="0 0 59 49" fill="none" xmlns="http://www.w3.org/2000/svg">
<defs>
<linearGradient id="paint0_linear_684_6" x1="24.3145" y1="48.6992" x2="24.3145" y2="14.1289" gradientUnits="userSpaceOnUse">
<stop stop-color="#F32D39"/>
<stop offset="1" stop-color="#FFBD8D"/>
</linearGradient>
<linearGradient id="paint1_linear_684_6" x1="31.2861" y1="45.2414" x2="31.2861" y2="0.300781" gradientUnits="userSpaceOnUse">
<stop stop-color="#FFC2C2"/>
<stop offset="1" stop-color="#FFF2F4"/>
</linearGradient>
</defs>
<path d="M45.1719 26.8854V19.3145C45.1719 18.3464 44.4114 17.5859 43.4434 17.5859H38.9081L31.2285 14.1289L23.549 17.5859H19.0901L12.2148 14.1289L5.33962 17.5859H1.72852C0.760432 17.5859 0 18.3464 0 19.3145V46.9707C0 47.9388 0.760432 48.6992 1.72852 48.6992H43.4434C44.4114 48.6992 45.1719 47.9388 45.1719 46.9707V39.3998L48.6289 33.7677L45.1719 26.8854Z" fill="url(#paint0_linear_684_6)"/>
<path d="M20.8574 12.4004C20.8574 7.62969 16.9855 3.75781 12.2148 3.75781C7.44414 3.75781 3.57227 7.62969 3.57227 12.4004C3.57227 14.3363 4.22887 16.1687 5.30078 17.5859H19.1289C20.2008 16.1687 20.8574 14.3363 20.8574 12.4004ZM31.2285 0.300781C25.5243 0.300781 20.8574 4.96766 20.8574 10.6719C20.8574 13.2992 21.8601 15.7536 23.5195 17.5859H38.9377C40.597 15.7536 41.5996 13.2992 41.5996 10.6719C41.5996 4.96766 36.9327 0.300781 31.2285 0.300781ZM58.1703 21.285C57.6863 20.9737 57.0293 20.9391 56.5111 21.2157L45.1719 26.8854V39.3998L56.5111 45.0693C57.1526 45.3442 57.7436 45.2665 58.1703 45.0001C58.6885 44.6545 59 44.1012 59 43.5136V22.7715C59 22.1839 58.6885 21.6306 58.1703 21.285ZM29.5 24.5H8.75781C7.8024 24.5 7.0293 25.2731 7.0293 26.2285V40.0566C7.0293 41.0121 7.8024 41.7852 8.75781 41.7852H29.5C30.4554 41.7852 31.2285 41.0121 31.2285 40.0566V26.2285C31.2285 25.2731 30.4554 24.5 29.5 24.5ZM36.4141 24.5C35.4595 24.5 34.6855 25.2739 34.6855 26.2285C34.6855 27.1831 35.4595 27.957 36.4141 27.957C37.3687 27.957 38.1426 27.1831 38.1426 26.2285C38.1426 25.2739 37.3687 24.5 36.4141 24.5Z" fill="url(#paint1_linear_684_6)"/>
</svg>
