<svg width="190" height="47" viewBox="0 0 190 47" fill="none" xmlns="http://www.w3.org/2000/svg">
    <defs>
        <linearGradient id="paint0_linear_75_957" x1="34.1623" y1="59.6204" x2="6.30036" y2="19.1729" gradientUnits="userSpaceOnUse">
            <stop stop-color="#E03A68"/>
            <stop offset="0.609375" stop-color="#EFA94D"/>
            <stop offset="1" stop-color="#FFDD9C"/>
        </linearGradient>
        <linearGradient id="paint1_linear_75_957" x1="5.61026" y1="52.6671" x2="-4.08055" y2="29.3786" gradientUnits="userSpaceOnUse">
            <stop stop-color="#E03A68"/>
            <stop offset="0.609375" stop-color="#EFA94D"/>
            <stop offset="1" stop-color="#FFDD9C"/>
        </linearGradient>
    </defs>
    <path d="M26.7642 0H29.3753C42.354 0 52.8753 10.5213 52.8753 23.5C52.8753 36.4787 42.354 47 29.3753 47H26.7642V0Z" fill="url(#paint0_linear_75_957)"/>
    <path d="M17.625 32.3516C20.5262 34.0266 20.5262 38.2142 17.625 39.8892L6.52777 46.2962C3.62654 47.9712 -1.46435e-07 45.8774 0 42.5274L5.60117e-07 29.7134C7.06552e-07 26.3633 3.62654 24.2695 6.52778 25.9446L17.625 32.3516Z" fill="url(#paint1_linear_75_957)"/>
    <path d="M75.2298 13.5049C75.0214 13.5049 74.8443 13.4417 74.6985 13.3155C74.5735 13.1682 74.511 12.9893 74.511 12.7789V11.0746C74.511 10.8642 74.5735 10.6853 74.6985 10.538C74.8443 10.3907 75.0214 10.3171 75.2298 10.3171H77.2299C77.4383 10.3171 77.6154 10.3907 77.7612 10.538C77.9071 10.6853 77.98 10.8642 77.98 11.0746V12.7789C77.98 12.9893 77.9071 13.1682 77.7612 13.3155C77.6154 13.4417 77.4383 13.5049 77.2299 13.5049H75.2298ZM71.792 38.9756C71.5837 38.9756 71.417 38.902 71.292 38.7547C71.1462 38.6284 71.0732 38.4601 71.0732 38.2497V37.1766C71.0732 36.9661 71.1462 36.7873 71.292 36.64C71.417 36.5138 71.5837 36.4506 71.792 36.4506H72.2296C73.2505 36.4506 73.9276 36.1876 74.261 35.6616C74.5943 35.1355 74.761 34.357 74.761 33.326V17.2923C74.761 17.0819 74.8235 16.9136 74.9485 16.7873C75.0944 16.64 75.2715 16.5664 75.4798 16.5664H77.0112C77.2195 16.5664 77.3862 16.64 77.5112 16.7873C77.657 16.9136 77.73 17.0819 77.73 17.2923V33.3575C77.73 37.1029 75.9486 38.9756 72.3858 38.9756H71.792Z" fill="black"/>
    <path d="M93.8844 33.2944C91.5926 33.2944 89.8112 32.6421 88.5403 31.3375C87.2902 30.033 86.6235 28.297 86.5401 26.1298L86.5089 24.7726L86.5401 23.4154C86.6235 21.2692 87.3006 19.5438 88.5715 18.2392C89.8425 16.9136 91.6134 16.2508 93.8844 16.2508C96.1554 16.2508 97.9264 16.9136 99.1973 18.2392C100.468 19.5438 101.145 21.2692 101.229 23.4154C101.249 23.6469 101.26 24.0993 101.26 24.7726C101.26 25.4459 101.249 25.8983 101.229 26.1298C101.145 28.297 100.468 30.033 99.1973 31.3375C97.9472 32.6421 96.1762 33.2944 93.8844 33.2944ZM93.8844 30.8641C95.197 30.8641 96.2283 30.4433 96.9784 29.6016C97.7493 28.76 98.166 27.5501 98.2285 25.972C98.2493 25.7615 98.2597 25.3618 98.2597 24.7726C98.2597 24.1834 98.2493 23.7836 98.2285 23.5732C98.166 21.9951 97.7493 20.7852 96.9784 19.9436C96.2283 19.1019 95.197 18.6811 93.8844 18.6811C92.5718 18.6811 91.5301 19.1019 90.7592 19.9436C89.9883 20.7852 89.582 21.9951 89.5403 23.5732L89.5091 24.7726L89.5403 25.972C89.582 27.5501 89.9883 28.76 90.7592 29.6016C91.5301 30.4433 92.5718 30.8641 93.8844 30.8641Z" fill="black"/>
    <path d="M112.251 38.9756C112.084 38.9756 111.938 38.9125 111.813 38.7862C111.688 38.66 111.626 38.5127 111.626 38.3444C111.626 38.1971 111.678 38.0077 111.782 37.7762L114.189 32.0003L108.219 17.7658C108.115 17.4922 108.063 17.3134 108.063 17.2292C108.063 17.0398 108.126 16.882 108.251 16.7558C108.376 16.6295 108.532 16.5664 108.719 16.5664H110.251C110.584 16.5664 110.834 16.7453 111.001 17.103L115.751 28.5916L120.626 17.103C120.793 16.7453 121.054 16.5664 121.408 16.5664H122.877C123.064 16.5664 123.22 16.6295 123.345 16.7558C123.47 16.882 123.533 17.0293 123.533 17.1976C123.533 17.2608 123.481 17.4501 123.377 17.7658L114.501 38.4391C114.334 38.7968 114.074 38.9756 113.72 38.9756H112.251Z" fill="black"/>
    <path d="M137.151 32.9788C136.61 32.9788 136.224 32.7158 135.995 32.1897L130.213 17.5448L130.151 17.2292C130.151 17.0398 130.213 16.882 130.338 16.7558C130.463 16.6295 130.62 16.5664 130.807 16.5664H132.307C132.661 16.5664 132.922 16.7453 133.089 17.103L137.839 29.5385L142.589 17.103C142.777 16.7453 143.027 16.5664 143.339 16.5664H144.871C145.037 16.5664 145.183 16.6295 145.308 16.7558C145.454 16.882 145.527 17.0398 145.527 17.2292L145.464 17.5448L139.652 32.1897C139.422 32.7158 139.037 32.9788 138.495 32.9788H137.151Z" fill="black"/>
    <path d="M159.564 33.2944C157.418 33.2944 155.699 32.6316 154.407 31.306C153.136 29.9593 152.439 28.1287 152.314 25.8141L152.282 24.741L152.314 23.6995C152.459 21.427 153.168 19.6174 154.439 18.2708C155.73 16.9241 157.428 16.2508 159.533 16.2508C161.845 16.2508 163.637 16.9978 164.908 18.4917C166.179 19.9646 166.815 21.9635 166.815 24.4885V25.0251C166.815 25.2355 166.742 25.4144 166.596 25.5616C166.471 25.6879 166.304 25.751 166.096 25.751H155.282V26.0351C155.345 27.4028 155.751 28.5706 156.501 29.5385C157.272 30.4854 158.283 30.9588 159.533 30.9588C160.491 30.9588 161.272 30.7694 161.877 30.3907C162.502 29.9909 162.96 29.5806 163.252 29.1597C163.439 28.9072 163.575 28.76 163.658 28.7179C163.762 28.6547 163.939 28.6232 164.189 28.6232H165.721C165.908 28.6232 166.064 28.6758 166.189 28.781C166.314 28.8862 166.377 29.0335 166.377 29.2229C166.377 29.6858 166.085 30.2434 165.502 30.8957C164.939 31.548 164.137 32.1161 163.096 32.6C162.075 33.0629 160.897 33.2944 159.564 33.2944ZM163.846 23.5732V23.4785C163.846 22.0267 163.45 20.8484 162.658 19.9436C161.887 19.0177 160.845 18.5548 159.533 18.5548C158.22 18.5548 157.178 19.0177 156.408 19.9436C155.658 20.8484 155.282 22.0267 155.282 23.4785V23.5732H163.846Z" fill="black"/>
    <path d="M181.896 33.2944C179.75 33.2944 178.031 32.6316 176.739 31.306C175.468 29.9593 174.77 28.1287 174.645 25.8141L174.614 24.741L174.645 23.6995C174.791 21.427 175.5 19.6174 176.771 18.2708C178.062 16.9241 179.76 16.2508 181.865 16.2508C184.177 16.2508 185.969 16.9978 187.24 18.4917C188.511 19.9646 189.146 21.9635 189.146 24.4885V25.0251C189.146 25.2355 189.073 25.4144 188.928 25.5616C188.803 25.6879 188.636 25.751 188.428 25.751H177.614V26.0351C177.677 27.4028 178.083 28.5706 178.833 29.5385C179.604 30.4854 180.615 30.9588 181.865 30.9588C182.823 30.9588 183.604 30.7694 184.209 30.3907C184.834 29.9909 185.292 29.5806 185.584 29.1597C185.771 28.9072 185.907 28.76 185.99 28.7179C186.094 28.6547 186.271 28.6232 186.521 28.6232H188.053C188.24 28.6232 188.396 28.6758 188.521 28.781C188.646 28.8862 188.709 29.0335 188.709 29.2229C188.709 29.6858 188.417 30.2434 187.834 30.8957C187.271 31.548 186.469 32.1161 185.427 32.6C184.407 33.0629 183.229 33.2944 181.896 33.2944ZM186.177 23.5732V23.4785C186.177 22.0267 185.782 20.8484 184.99 19.9436C184.219 19.0177 183.177 18.5548 181.865 18.5548C180.552 18.5548 179.51 19.0177 178.739 19.9436C177.989 20.8484 177.614 22.0267 177.614 23.4785V23.5732H186.177Z" fill="black"/>
</svg>
