<svg width="60" height="46" viewBox="0 0 60 46" fill="none" xmlns="http://www.w3.org/2000/svg">
<defs>
<linearGradient id="paint0_linear_679_2" x1="16.7879" y1="57.2518" x2="1.40082" y2="4.46654" gradientUnits="userSpaceOnUse">
<stop stop-color="#E03A68"/>
<stop offset="0.609375" stop-color="#EFA94D"/>
<stop offset="1" stop-color="#FFDD9C"/>
</linearGradient>
<linearGradient id="paint1_linear_679_2" x1="29.625" y1="38.1894" x2="29.625" y2="6.94534" gradientUnits="userSpaceOnUse">
<stop stop-color="#FFE59A"/>
<stop offset="1" stop-color="#FFFFD5"/>
</linearGradient>
</defs>
<path d="M57.5154 45.1328H1.73588C0.7764 45.1328 0 44.3564 0 43.3969V1.73588C0 0.7764 0.7764 0 1.73588 0H57.5154C58.4749 0 59.2513 0.7764 59.2513 1.73588V43.3969C59.2513 44.3564 58.4749 45.1328 57.5154 45.1328Z" fill="url(#paint0_linear_679_2)"/>
<path d="M23.5765 27.5572C24.1397 27.8681 24.8182 27.838 25.3361 27.5097L39.2231 18.8303C39.7317 18.5133 40.0403 17.9573 40.0403 17.3589C40.0403 16.7605 39.7317 16.2044 39.2231 15.8874L25.3361 7.20804C24.8106 6.87406 24.1291 6.85878 23.5765 7.16059C23.0239 7.46738 22.6815 8.0489 22.6815 8.67948V26.0383C22.6815 26.6688 23.0239 27.2504 23.5765 27.5572ZM50.4555 31.2459H17.4739V29.51C17.4739 28.5505 16.6975 27.7741 15.738 27.7741C14.7785 27.7741 14.0021 28.5505 14.0021 29.51V31.2459H8.79447C7.83499 31.2459 7.05859 32.0223 7.05859 32.9818C7.05859 33.9412 7.83499 34.7176 8.79447 34.7176H14.0021V36.4535C14.0021 37.413 14.7785 38.1894 15.738 38.1894C16.6975 38.1894 17.4739 37.413 17.4739 36.4535V34.7176H50.4555C51.415 34.7176 52.1914 33.9412 52.1914 32.9818C52.1914 32.0223 51.415 31.2459 50.4555 31.2459Z" fill="url(#paint1_linear_679_2)"/>
</svg>
