<svg width="60" height="52" viewBox="0 0 60 52" fill="none" xmlns="http://www.w3.org/2000/svg">
<defs>
<linearGradient id="paint0_linear_679_18" x1="29.5166" y1="52" x2="29.5166" y2="0" gradientUnits="userSpaceOnUse">
<stop stop-color="#5558FF"/>
<stop offset="1" stop-color="#00C0FF"/>
</linearGradient>
<linearGradient id="paint1_linear_679_18" x1="29.5166" y1="27.7871" x2="29.5166" y2="17.4102" gradientUnits="userSpaceOnUse">
<stop stop-color="#ADDCFF"/>
<stop offset="0.5028" stop-color="#EAF6FF"/>
<stop offset="1" stop-color="#EAF6FF"/>
</linearGradient>
</defs>
<path d="M29.5166 0C13.306 0 0 10.2017 0 22.5987C0 30.3712 5.19227 37.4108 13.7418 41.5606C13.8803 42.1771 13.9512 42.7698 13.9512 43.3526C13.9512 45.3506 13.2486 47.2507 11.9211 48.8467C11.536 49.306 11.4179 49.9293 11.607 50.4968C11.796 51.0643 12.2623 51.4934 12.8433 51.6335C13.8635 51.8801 14.7923 52 15.6807 52C20.43 52 24.6693 49.22 26.6285 44.9553C27.5776 45.0347 28.5404 45.082 29.5166 45.082C45.7273 45.082 59.0333 34.9957 59.0333 22.5987C59.0333 10.2017 45.7273 0 29.5166 0Z" fill="url(#paint0_linear_679_18)"/>
<path d="M15.6807 17.4102C12.8196 17.4102 10.4922 19.7376 10.4922 22.5986C10.4922 25.4597 12.8196 27.7871 15.6807 27.7871C18.5417 27.7871 20.8691 25.4597 20.8691 22.5986C20.8691 19.7376 18.5417 17.4102 15.6807 17.4102ZM29.5166 17.4102C26.6555 17.4102 24.3281 19.7376 24.3281 22.5986C24.3281 25.4597 26.6555 27.7871 29.5166 27.7871C32.3776 27.7871 34.705 25.4597 34.705 22.5986C34.705 19.7376 32.3776 17.4102 29.5166 17.4102ZM43.3525 17.4102C40.4915 17.4102 38.164 19.7376 38.164 22.5986C38.164 25.4597 40.4915 27.7871 43.3525 27.7871C46.2135 27.7871 48.541 25.4597 48.541 22.5986C48.541 19.7376 46.2135 17.4102 43.3525 17.4102Z" fill="url(#paint1_linear_679_18)"/>

</svg>
