<svg width="190" height="190" viewBox="0 0 190 190" fill="none" xmlns="http://www.w3.org/2000/svg">
<defs>
    <linearGradient id="paint0_linear_1040_416" x1="95" y1="190" x2="95" y2="0" gradientUnits="userSpaceOnUse">
        <stop stop-color="#FFC8D1"/>
        <stop offset="1" stop-color="#FFF6F7"/>
    </linearGradient>
    <linearGradient id="paint1_linear_1040_416" x1="95" y1="151.035" x2="95" y2="38.9648" gradientUnits="userSpaceOnUse">
        <stop stop-color="#FFA68D"/>
        <stop offset="1" stop-color="#FD3A84"/>
    </linearGradient>
</defs>
<path d="M95 190C147.467 190 190 147.467 190 95C190 42.5329 147.467 0 95 0C42.5329 0 0 42.5329 0 95C0 147.467 42.5329 190 95 190Z" fill="url(#paint0_linear_1040_416)"/>
<path d="M90.2155 56.7053C87.8702 59.0507 85.5727 61.6357 83.4664 64.3161C77.0045 72.4052 70.6381 82.6006 64.5595 94.7105C60.6824 102.417 58.4807 107.874 58.3367 108.113C57.858 109.358 58.1452 110.794 59.1026 111.751L78.2488 130.898C79.2062 131.855 80.642 132.142 81.9345 131.616C82.1739 131.568 87.4868 129.318 95.1933 125.537C107.59 119.267 117.93 112.757 125.923 106.295C128.556 104.237 131.045 102.035 133.294 99.7852C140.044 93.0358 144.926 83.2716 147.893 70.7308L119.27 42.1073C106.73 45.0738 96.9649 49.9559 90.2155 56.7053ZM121.328 92.6046C114.73 99.2023 103.993 99.2023 97.3954 92.6046C90.7973 86.0065 90.7973 75.2697 97.3954 68.6716C103.993 62.074 114.73 62.074 121.328 68.6716C127.926 75.2697 127.926 86.0065 121.328 92.6046ZM44.7502 87.8108C45.3391 88.3997 46.1407 88.7667 47.0031 88.8064C47.271 88.8168 51.9984 89.0068 57.9875 92.7356C58.1704 92.3667 58.3204 92.0468 58.5115 91.6672C64.0096 80.7199 69.805 71.2723 75.7543 63.3331C68.5024 64.9985 57.894 69.8803 44.7431 83.0315C43.7965 83.9781 43.5093 85.3968 43.9928 86.647C44.1661 87.0912 44.4255 87.4861 44.7502 87.8108ZM97.372 132.003C101.467 138.275 101.801 143.342 101.815 143.628C101.853 144.492 102.215 145.289 102.804 145.878C103.126 146.201 103.517 146.46 103.958 146.636C105.211 147.127 106.637 146.832 107.59 145.878C121.568 131.9 126.229 120.769 127.586 113.519C119.572 119.666 109.767 125.751 98.2485 131.577C98.2196 131.591 97.8574 131.768 97.372 132.003ZM49.5299 116.538C43.7876 122.28 39.7675 142.955 39.0194 147.04C38.8209 148.137 39.1712 149.258 39.9568 150.044C40.742 150.829 41.8638 151.179 42.96 150.981C47.0454 150.233 67.7202 146.213 73.4628 140.47C74.2822 139.651 74.998 138.766 75.6141 137.835L52.1654 114.386C51.2339 115.002 50.3493 115.718 49.5299 116.538ZM151.005 42.2501C150.958 40.4789 149.521 39.0424 147.75 38.9949C147.306 38.9544 138.442 38.7336 127.266 40.529L149.471 62.7334C151.266 51.5572 151.046 42.6943 151.005 42.2501Z" fill="url(#paint1_linear_1040_416)"/>
</svg>
