<svg width="59" height="59" viewBox="0 0 59 59" fill="none" xmlns="http://www.w3.org/2000/svg">
<defs>
<linearGradient id="paint0_linear_684_14" x1="29.5" y1="59" x2="29.5" y2="7.0293" gradientUnits="userSpaceOnUse">
<stop stop-color="#3B79FF"/>
<stop offset="1" stop-color="#02BEFF"/>
</linearGradient>
<linearGradient id="paint1_linear_684_14" x1="29.5" y1="48.5137" x2="29.5" y2="0" gradientUnits="userSpaceOnUse">
<stop stop-color="#9ACFFF"/>
<stop offset="1" stop-color="#D5E8FF"/>
</linearGradient>
</defs>
<path d="M57.2715 7.0293H50.2422C49.2868 7.0293 48.5137 7.8024 48.5137 8.75781V10.4863H45.0566V8.75781C45.0566 7.8024 44.2835 7.0293 43.3281 7.0293H32.957C32.0016 7.0293 31.2285 7.8024 31.2285 8.75781V10.4863H27.7715V8.75781C27.7715 7.8024 26.9984 7.0293 26.043 7.0293H15.6719C14.7165 7.0293 13.9434 7.8024 13.9434 8.75781V10.4863H10.4863V8.75781C10.4863 7.8024 9.71322 7.0293 8.75781 7.0293H1.72852C0.773107 7.0293 0 7.8024 0 8.75781V57.2715C0 58.2269 0.773107 59 1.72852 59H57.2715C58.2269 59 59 58.2269 59 57.2715V8.75781C59 7.8024 58.2269 7.0293 57.2715 7.0293Z" fill="url(#paint0_linear_684_14)"/>
<path d="M15.6719 0H8.75781C7.8024 0 7.0293 0.773107 7.0293 1.72852V12.2148C7.0293 13.1703 7.8024 13.9434 8.75781 13.9434H15.6719C16.6273 13.9434 17.4004 13.1703 17.4004 12.2148V1.72852C17.4004 0.773107 16.6273 0 15.6719 0ZM26.043 13.9434H32.957C33.9124 13.9434 34.6855 13.1703 34.6855 12.2148V1.72852C34.6855 0.773107 33.9124 0 32.957 0H26.043C25.0876 0 24.3145 0.773107 24.3145 1.72852V12.2148C24.3145 13.1703 25.0876 13.9434 26.043 13.9434ZM50.2422 0H43.3281C42.3727 0 41.5996 0.773107 41.5996 1.72852V12.2148C41.5996 13.1703 42.3727 13.9434 43.3281 13.9434H50.2422C51.1976 13.9434 51.9707 13.1703 51.9707 12.2148V1.72852C51.9707 0.773107 51.1976 0 50.2422 0ZM20.8574 48.5137H27.7715V41.5996H20.8574V48.5137ZM20.8574 38.1426H27.7715V31.2285H20.8574V38.1426ZM10.4863 46.7852C10.4863 47.753 11.2468 48.5137 12.2148 48.5137H17.4004V41.5996H10.4863V46.7852ZM10.4863 38.1426H17.4004V31.2285H10.4863V38.1426ZM10.4863 22.5859V27.7715H17.4004V20.8574H12.2148C11.2468 20.8574 10.4863 21.6179 10.4863 22.5859ZM41.5996 48.5137H46.7852C47.7532 48.5137 48.5137 47.753 48.5137 46.7852V41.5996H41.5996V48.5137ZM41.5996 38.1426H48.5137V31.2285H41.5996V38.1426ZM46.7852 20.8574H41.5996V27.7715H48.5137V22.5859C48.5137 21.6179 47.7532 20.8574 46.7852 20.8574ZM31.2285 38.1426H38.1426V31.2285H31.2285V38.1426ZM31.2285 48.5137H38.1426V41.5996H31.2285V48.5137ZM20.8574 27.7715H27.7715V20.8574H20.8574V27.7715ZM31.2285 27.7715H38.1426V20.8574H31.2285V27.7715Z" fill="url(#paint1_linear_684_14)"/>
</svg>
