<svg width="23" height="23" viewBox="0 0 23 23" fill="none" xmlns="http://www.w3.org/2000/svg">
<g clip-path="url(#clip0_812_1209)">
<path d="M22.6067 4.1118C22.5049 3.15971 22.08 2.27123 21.4028 1.59429C20.7256 0.91734 19.837 0.492777 18.8849 0.391285C13.9765 -0.132381 9.02627 -0.132381 4.11784 0.391285C3.16478 0.491654 2.27494 0.915722 1.5967 1.59277C0.918467 2.26981 0.492838 3.15891 0.390797 4.1118C-0.13287 9.02022 -0.13287 13.9704 0.390797 18.8788C0.490938 19.8323 0.91507 20.7226 1.59241 21.4012C2.26974 22.0797 3.1593 22.5054 4.11262 22.6072C9.0209 23.1334 13.9714 23.1334 18.8797 22.6072C19.8331 22.5067 20.7233 22.0823 21.4016 21.4047C22.0799 20.7271 22.5052 19.8374 22.6067 18.8841C23.1308 13.9739 23.1308 9.02194 22.6067 4.1118Z" fill="#2F284E"/>
<path d="M17.6263 8.05543C16.8282 8.05543 16.0919 7.79412 15.5006 7.3533C14.8225 6.84795 14.3352 6.10668 14.1632 5.25229C14.1206 5.04119 14.0976 4.82334 14.0955 4.6001H11.8158V10.7571L11.813 14.1295C11.813 15.0312 11.219 15.7956 10.3956 16.0645C10.1566 16.1425 9.89849 16.1795 9.62974 16.1649C9.28671 16.1463 8.96525 16.044 8.68586 15.8788C8.09128 15.5273 7.68816 14.8897 7.67724 14.1603C7.66003 13.0203 8.59245 12.0909 9.745 12.0909C9.9725 12.0909 10.191 12.1276 10.3956 12.1943V10.5114V9.90646C10.1798 9.87488 9.96021 9.85841 9.73817 9.85841C8.47665 9.85841 7.29679 10.3767 6.45341 11.3105C5.81596 12.0161 5.4336 12.9164 5.3746 13.8604C5.29731 15.1005 5.75642 16.2794 6.64678 17.1492C6.7776 17.2768 6.91497 17.3954 7.05863 17.5047C7.82199 18.0853 8.75523 18.4001 9.73817 18.4001C9.96021 18.4001 10.1798 18.3839 10.3956 18.3523C11.3138 18.2179 12.161 17.8024 12.8296 17.1492C13.6511 16.3466 14.105 15.2811 14.1099 14.1471L14.0982 9.11093C14.4901 9.40976 14.9186 9.65703 15.3785 9.84896C16.0938 10.1473 16.8523 10.2984 17.6328 10.2982V8.662V8.05489C17.6334 8.05543 17.6268 8.05543 17.6263 8.05543Z" fill="white"/>
</g>
<defs>
<clipPath id="clip0_812_1209">
<rect width="23" height="23" fill="white"/>
</clipPath>
</defs>
</svg>
