<svg width="34" height="34" viewBox="0 0 34 34" fill="none" xmlns="http://www.w3.org/2000/svg">
<g clip-path="url(#clip0_565_266)">
<path d="M33.4195 6.07876C33.269 4.67133 32.6409 3.35793 31.6399 2.35723C30.6388 1.35652 29.3252 0.728909 27.9177 0.578878C20.6618 -0.195238 13.3441 -0.195238 6.08818 0.578878C4.67931 0.727249 3.36389 1.35413 2.36128 2.35498C1.35867 3.35583 0.729477 4.67016 0.578634 6.07876C-0.195482 13.3347 -0.195482 20.6524 0.578634 27.9083C0.726669 29.3178 1.35365 30.6339 2.35492 31.637C3.3562 32.64 4.6712 33.2693 6.08045 33.4198C13.3362 34.1977 20.6543 34.1977 27.91 33.4198C29.3195 33.2713 30.6353 32.6438 31.638 31.6422C32.6407 30.6406 33.2695 29.3253 33.4195 27.916C34.1942 20.6576 34.1942 13.3372 33.4195 6.07876Z" fill="#2F284E"/>
<path d="M26.0572 11.9079C24.8775 11.9079 23.789 11.5216 22.9149 10.87C21.9124 10.123 21.1922 9.02716 20.9378 7.76416C20.8748 7.4521 20.8409 7.13007 20.8377 6.80005H17.4677V15.9017L17.4637 20.887C17.4637 22.2199 16.5855 23.35 15.3683 23.7474C15.015 23.8628 14.6335 23.9174 14.2362 23.8959C13.7291 23.8684 13.2539 23.7171 12.8409 23.4729C11.962 22.9533 11.366 22.0108 11.3499 20.9325C11.3245 19.2473 12.7028 17.8734 14.4066 17.8734C14.7429 17.8734 15.0659 17.9276 15.3683 18.0262V15.5385V14.6442C15.0493 14.5975 14.7247 14.5732 14.3965 14.5732C12.5316 14.5732 10.7875 15.3394 9.54076 16.7197C8.59844 17.7628 8.03321 19.0937 7.946 20.4892C7.83174 22.3224 8.51042 24.0651 9.8266 25.3508C10.02 25.5396 10.2231 25.7148 10.4354 25.8764C11.5639 26.7348 12.9434 27.2001 14.3965 27.2001C14.7247 27.2001 15.0493 27.1761 15.3683 27.1294C16.7256 26.9307 17.978 26.3165 18.9664 25.3508C20.1808 24.1645 20.8518 22.5894 20.8591 20.913L20.8417 13.4682C21.4211 13.91 22.0546 14.2755 22.7344 14.5592C23.7918 15.0002 24.913 15.2237 26.0669 15.2233V12.8046V11.9071C26.0677 11.9079 26.058 11.9079 26.0572 11.9079Z" fill="white"/>
</g>
<defs>
<clipPath id="clip0_565_266">
<rect width="34" height="34" fill="white"/>
</clipPath>
</defs>
</svg>
