<svg width="23" height="23" viewBox="0 0 23 23" fill="none" xmlns="http://www.w3.org/2000/svg">
<g clip-path="url(#clip0_812_1236)">
<path d="M22.6067 4.1118C22.5049 3.15971 22.08 2.27123 21.4028 1.59429C20.7256 0.91734 19.837 0.492777 18.8849 0.391285C13.9765 -0.132381 9.02627 -0.132381 4.11784 0.391285C3.16478 0.491654 2.27494 0.915722 1.5967 1.59277C0.918467 2.26981 0.492838 3.15891 0.390797 4.1118C-0.13287 9.02022 -0.13287 13.9704 0.390797 18.8788C0.490938 19.8323 0.91507 20.7226 1.59241 21.4012C2.26974 22.0797 3.1593 22.5054 4.11262 22.6072C9.0209 23.1334 13.9714 23.1334 18.8797 22.6072C19.8331 22.5067 20.7233 22.0823 21.4016 21.4047C22.0799 20.7271 22.5052 19.8374 22.6067 18.8841C23.1308 13.9739 23.1308 9.02194 22.6067 4.1118Z" fill="#D33535"/>
<rect x="4.59961" y="6.8999" width="13.8" height="9.2" rx="3" fill="white"/>
<path d="M13.0498 11.0672C13.3831 11.2596 13.3831 11.7408 13.0498 11.9332L11.0998 13.059C10.7665 13.2515 10.3498 13.0109 10.3498 12.626L10.3498 10.3744C10.3498 9.98946 10.7665 9.7489 11.0998 9.94135L13.0498 11.0672Z" fill="#D33535"/>
</g>
<defs>
<clipPath id="clip0_812_1236">
<rect width="23" height="23" fill="white"/>
</clipPath>
</defs>
</svg>
