<svg width="34" height="34" viewBox="0 0 34 34" fill="none" xmlns="http://www.w3.org/2000/svg">
<g clip-path="url(#clip0_565_270)">
<path d="M33.4195 6.07876C33.269 4.67133 32.6409 3.35793 31.6399 2.35723C30.6388 1.35652 29.3252 0.728909 27.9177 0.578878C20.6618 -0.195238 13.3441 -0.195238 6.08818 0.578878C4.67931 0.727249 3.36389 1.35413 2.36128 2.35498C1.35867 3.35583 0.729477 4.67016 0.578634 6.07876C-0.195482 13.3347 -0.195482 20.6524 0.578634 27.9083C0.726669 29.3178 1.35365 30.6339 2.35492 31.637C3.3562 32.64 4.6712 33.2693 6.08045 33.4198C13.3362 34.1977 20.6543 34.1977 27.91 33.4198C29.3195 33.2713 30.6353 32.6438 31.638 31.6422C32.6407 30.6406 33.2695 29.3253 33.4195 27.916C34.1942 20.6576 34.1942 13.3372 33.4195 6.07876Z" fill="#D33535"/>
<rect x="6.7998" y="10.2" width="20.4" height="13.6" rx="3" fill="white"/>
<path d="M19.6504 16.567C19.9837 16.7594 19.9837 17.2405 19.6504 17.433L16.0504 19.5115C15.7171 19.7039 15.3004 19.4633 15.3004 19.0784L15.3004 14.9215C15.3004 14.5366 15.7171 14.2961 16.0504 14.4885L19.6504 16.567Z" fill="#D33535"/>
</g>
<defs>
<clipPath id="clip0_565_270">
<rect width="34" height="34" fill="white"/>
</clipPath>
</defs>
</svg>
